<svg height="108" width="108" xmlns="http://www.w3.org/2000/svg"><defs><linearGradient id="b"><stop style="stop-color:#000;stop-opacity:.26666668" offset="0"/><stop style="stop-color:#000;stop-opacity:0" offset="1"/></linearGradient><linearGradient id="a"><stop style="stop-color:#000;stop-opacity:.26666668" offset="0"/><stop style="stop-color:#000;stop-opacity:.24705882" offset=".063"/><stop style="stop-color:#000;stop-opacity:.23137255" offset=".125"/><stop style="stop-color:#000;stop-opacity:.2" offset=".25"/><stop style="stop-color:#000;stop-opacity:.13333333" offset=".5"/><stop style="stop-color:#000;stop-opacity:0" offset="1"/></linearGradient><linearGradient gradientUnits="objectBoundingBox" id="d" spreadMethod="pad" x1="0%" x2="100%" y1="0%" y2="100%"><stop offset="0%" stop-opacity=".3"/><stop offset="70%" stop-opacity="0"/><stop offset="100%" stop-opacity="0"/></linearGradient><clipPath id="e"><path d="M40.73 72.54 45 68h22l.92-30.1 30 30-27.19 34.64z"/></clipPath><clipPath id="c"><circle cx="54" cy="54" r="45"/></clipPath></defs><g clip-path="url(#c)"><path style="fill:#4a8bc3;opacity:1" d="M0 0h108v108H0z"/><path style="fill:#000;opacity:1;stroke-width:.8;stroke:#fff;stroke-opacity:.2" d="M9 0v108M19 0v108M29 0v108M39 0v108M49 0v108M59 0v108M69 0v108M79 0v108M89 0v108M99 0v108M0 9h108M0 19h108M0 29h108M0 39h108M0 49h108M0 59h108M0 69h108M0 79h108M0 89h108M0 99h108M19 29h70M19 39h70M19 49h70M19 59h70M19 69h70M19 79h70M29 19v70M39 19v70M49 19v70M59 19v70M69 19v70M79 19v70"/><path style="fill:url(#d);fill-opacity:1;stroke:none" clip-path="url(#e)" d="M40 40h60v70H40z"/><path style="fill:#ab6366;fill-opacity:1" d="m54 65 4-6-4-4-4 4z"/><path style="fill:#ffeb3c;fill-opacity:.75294119" d="M41 58h26v8H41z"/><path style="fill:#000;fill-opacity:.2" d="M41 42h26v12H41z"/><path style="fill:#c34a4e;fill-opacity:1" d="M38 63c0 1.76.78 3.34 2 4.44V71c0 1.1.9 2 2 2h2c1.1 0 2-.9 2-2v-2h16v2c0 1.1.9 2 2 2h2c1.1 0 2-.9 2-2v-3.56c1.22-1.1 2-2.68 2-4.44V43c0-7-7.16-8-16-8s-16 1-16 8v20zm7 2c-1.66 0-3-1.34-3-3s1.34-3 3-3 3 1.34 3 3-1.34 3-3 3zm18 0c-1.66 0-3-1.34-3-3s1.34-3 3-3 3 1.34 3 3-1.34 3-3 3zm3-12H42V43h24v10z"/></g></svg>