<svg height="108" width="108" xmlns="http://www.w3.org/2000/svg"><defs><linearGradient id="b"><stop offset="0" stop-opacity=".267"/><stop offset="1" stop-opacity="0"/></linearGradient><linearGradient id="a"><stop offset="0" stop-opacity=".267"/><stop offset=".063" stop-opacity=".247"/><stop offset=".125" stop-opacity=".231"/><stop offset=".25" stop-opacity=".2"/><stop offset=".5" stop-opacity=".133"/><stop offset="1" stop-opacity="0"/></linearGradient><linearGradient gradientUnits="objectBoundingBox" id="e" spreadMethod="pad" x1="0%" x2="100%" y1="0%" y2="100%"><stop offset="0%" stop-opacity=".3"/><stop offset="70%" stop-opacity="0"/><stop offset="100%" stop-opacity="0"/></linearGradient><clipPath id="d"><path d="M40.73 72.54L45 68h22l.92-30.1 30 30-27.19 34.64z"/></clipPath><clipPath id="c"><circle cx="54" cy="54" r="45"/></clipPath></defs><g clip-path="url(#c)"><path fill="#4a8bc3" d="M0 0h108v108H0z"/><path d="M9 0v108M19 0v108M29 0v108M39 0v108M49 0v108M59 0v108M69 0v108M79 0v108M89 0v108M99 0v108M0 9h108M0 19h108M0 29h108M0 39h108M0 49h108M0 59h108M0 69h108M0 79h108M0 89h108M0 99h108M19 29h70M19 39h70M19 49h70M19 59h70M19 69h70M19 79h70M29 19v70M39 19v70M49 19v70M59 19v70M69 19v70M79 19v70" stroke-width=".8" stroke="#fff" stroke-opacity=".2"/><g><path clip-path="url(#d)" fill="url(#e)" d="M40 40h60v70H40z"/><path d="M54 65l4-6-4-4-4 4z" fill="#ab6366"/><path d="M41 58h26v8H41z" fill="#ffeb3c" fill-opacity=".753"/><path d="M41 42h26v12H41z" fill-opacity=".2"/><path d="M38 63c0 1.76.78 3.34 2 4.44V71c0 1.1.9 2 2 2h2c1.1 0 2-.9 2-2v-2h16v2c0 1.1.9 2 2 2h2c1.1 0 2-.9 2-2v-3.56c1.22-1.1 2-2.68 2-4.44V43c0-7-7.16-8-16-8s-16 1-16 8v20zm7 2c-1.66 0-3-1.34-3-3s1.34-3 3-3 3 1.34 3 3-1.34 3-3 3zm18 0c-1.66 0-3-1.34-3-3s1.34-3 3-3 3 1.34 3 3-1.34 3-3 3zm3-12H42V43h24v10z" fill="#c34a4e"/></g></g></svg>