<svg xmlns="http://www.w3.org/2000/svg" width="108" height="108"><defs><linearGradient id="b"><stop offset="0" style="stop-color:#000;stop-opacity:.26666668"/><stop offset="1" style="stop-color:#000;stop-opacity:0"/></linearGradient><linearGradient id="a"><stop offset="0" style="stop-color:#000;stop-opacity:.26666668"/><stop offset=".063" style="stop-color:#000;stop-opacity:.24705882"/><stop offset=".125" style="stop-color:#000;stop-opacity:.23137255"/><stop offset=".25" style="stop-color:#000;stop-opacity:.2"/><stop offset=".5" style="stop-color:#000;stop-opacity:.13333333"/><stop offset="1" style="stop-color:#000;stop-opacity:0"/></linearGradient><linearGradient y2="100%" y1="0%" x2="100%" x1="0%" spreadMethod="pad" id="d" gradientUnits="objectBoundingBox"><stop stop-opacity=".3" offset="0%"/><stop stop-opacity="0" offset="70%"/><stop stop-opacity="0" offset="100%"/></linearGradient><clipPath id="c"><path d="M40.73 72.54 45 68h22l.92-30.1 30 30-27.19 34.64z"/></clipPath></defs><g clip-path="url(#clipCircle)"><path style="fill:#4a8bc3;opacity:1" d="M0 0h108v108H0z"/><path d="M9 0v108M19 0v108M29 0v108M39 0v108M49 0v108M59 0v108M69 0v108M79 0v108M89 0v108M99 0v108M0 9h108M0 19h108M0 29h108M0 39h108M0 49h108M0 59h108M0 69h108M0 79h108M0 89h108M0 99h108" style="fill:#000;opacity:1;stroke-width:.8;stroke:#fff;stroke-opacity:.2"/><path clip-path="url(#c)" style="fill:url(#d);fill-opacity:1;stroke:none" d="M40 40h60v70H40z"/><path d="m54 65 4-6-4-4-4 4z" style="fill:#ab6366;fill-opacity:1"/><path d="M41 58h26v8H41z" style="fill:#ffeb3c;fill-opacity:.75294119"/><path d="M41 42h26v12H41z" style="fill:#000;fill-opacity:.2"/><path d="M38 63c0 1.76.78 3.34 2 4.44V71c0 1.1.9 2 2 2h2c1.1 0 2-.9 2-2v-2h16v2c0 1.1.9 2 2 2h2c1.1 0 2-.9 2-2v-3.56c1.22-1.1 2-2.68 2-4.44V43c0-7-7.16-8-16-8s-16 1-16 8v20zm7 2c-1.66 0-3-1.34-3-3s1.34-3 3-3 3 1.34 3 3-1.34 3-3 3zm18 0c-1.66 0-3-1.34-3-3s1.34-3 3-3 3 1.34 3 3-1.34 3-3 3zm3-12H42V43h24v10z" style="fill:#c34a4e;fill-opacity:1"/></g></svg>